<?xml version="1.0" encoding="utf-8"?>
<!-- Generator: Adobe Illustrator 15.0.0, SVG Export Plug-In . SVG Version: 6.00 Build 0)  -->
<!DOCTYPE svg PUBLIC "-//W3C//DTD SVG 1.1//EN" "http://www.w3.org/Graphics/SVG/1.1/DTD/svg11.dtd">
<svg version="1.1" id="Layer_1" xmlns="http://www.w3.org/2000/svg" xmlns:xlink="http://www.w3.org/1999/xlink" x="0px" y="0px"
	 width="42px" height="22px" viewBox="0 0 42 22" enable-background="new 0 0 42 22" xml:space="preserve">
<rect x="0.5" y="0.5" fill="#FFFFFF" stroke="#DD2727" stroke-miterlimit="10" width="20" height="20"/>
<rect x="20.5" y="0.5" fill="#DD2727" stroke="#DD2727" stroke-miterlimit="10" width="20" height="20"/>
<g>
	<path fill="#FFFFFF" d="M31.775,11.88v3.62h-2.754v-3.62h-3.635V9.12h3.635V5.5h2.754v3.62h3.611v2.76H31.775z"/>
</g>
<g>
	<path fill="#DD2727" d="M4,12.563c0-2.268,1.134-3.55,2.17-3.55c0.723,0,1.25,0.526,1.528,1.183V5.89
		c0-0.575-0.116-0.723-0.805-0.723H6.778V4.756l2.465-0.165v10.7c0,0.395,0.115,0.443,0.789,0.477v0.411l-2.333,0.083v-1.283
		c-0.197,0.607-0.69,1.396-1.578,1.396C4.986,16.375,4,14.913,4,12.563 M7.714,13.154v-1.266c0-1.101-0.46-2.235-1.068-2.235
		c-0.576,0-0.921,0.395-0.904,2.909c0,2.4,0.23,3.172,0.871,3.172C7.336,15.734,7.714,14.551,7.714,13.154"/>
	<path fill="#DD2727" d="M11.873,15.34c-0.345,0-0.674,0.625-0.789,0.872h-0.379v-3.698h0.379c0.789,1.775,1.938,3.369,3.007,3.369
		c0.838,0,1.282-0.724,1.249-1.627c-0.033-1.199-1.068-2.006-2.152-2.844c-1.2-0.937-2.449-1.972-2.449-3.796
		c0-1.661,1.118-2.942,2.762-2.942c1.118,0,1.692,0.837,2.038,0.837c0.197,0,0.411-0.197,0.641-0.69h0.328v3.354h-0.394
		c-0.542-1.446-1.397-2.958-2.515-2.958c-0.772,0-1.232,0.657-1.2,1.462c0.033,1.2,1.052,2.021,2.12,2.844
		C15.719,10.476,17,11.479,17,13.27c0,2.021-1.38,3.139-2.777,3.139C12.924,16.408,12.201,15.34,11.873,15.34"/>
</g>
</svg>
